<mxfile host="app.diagrams.net" modified="2021-09-24T01:11:44.061Z" agent="5.0 (Windows NT 10.0; Win64; x64) AppleWebKit/537.36 (KHTML, like Gecko) Chrome/93.0.4577.82 Safari/537.36" etag="pNmnl2jbS5MiAzjNQo8d" version="15.3.1" type="github">
  <diagram id="SAKhDvZOrdHUWKwcHE5H" name="Page-1">
    <mxGraphModel dx="310" dy="375" grid="0" gridSize="10" guides="1" tooltips="1" connect="1" arrows="1" fold="1" page="1" pageScale="1" pageWidth="827" pageHeight="1169" math="0" shadow="0">
      <root>
        <mxCell id="0" />
        <mxCell id="1" parent="0" />
        <mxCell id="4yoSR3sfbxtTGF_zmqx2-5" value="" style="edgeStyle=orthogonalEdgeStyle;rounded=0;orthogonalLoop=1;jettySize=auto;html=1;" edge="1" parent="1" source="4yoSR3sfbxtTGF_zmqx2-1" target="4yoSR3sfbxtTGF_zmqx2-2">
          <mxGeometry relative="1" as="geometry" />
        </mxCell>
        <mxCell id="4yoSR3sfbxtTGF_zmqx2-1" value="拿球" style="rounded=1;whiteSpace=wrap;html=1;" vertex="1" parent="1">
          <mxGeometry x="150" y="210" width="70" height="40" as="geometry" />
        </mxCell>
        <mxCell id="4yoSR3sfbxtTGF_zmqx2-6" value="" style="edgeStyle=orthogonalEdgeStyle;rounded=0;orthogonalLoop=1;jettySize=auto;html=1;" edge="1" parent="1" source="4yoSR3sfbxtTGF_zmqx2-2" target="4yoSR3sfbxtTGF_zmqx2-4">
          <mxGeometry relative="1" as="geometry" />
        </mxCell>
        <mxCell id="4yoSR3sfbxtTGF_zmqx2-2" value="打球" style="rounded=1;whiteSpace=wrap;html=1;" vertex="1" parent="1">
          <mxGeometry x="274" y="210" width="70" height="40" as="geometry" />
        </mxCell>
        <mxCell id="4yoSR3sfbxtTGF_zmqx2-8" value="" style="edgeStyle=orthogonalEdgeStyle;rounded=0;orthogonalLoop=1;jettySize=auto;html=1;" edge="1" parent="1" source="4yoSR3sfbxtTGF_zmqx2-3" target="4yoSR3sfbxtTGF_zmqx2-1">
          <mxGeometry relative="1" as="geometry" />
        </mxCell>
        <mxCell id="4yoSR3sfbxtTGF_zmqx2-3" value="还球" style="rounded=1;whiteSpace=wrap;html=1;" vertex="1" parent="1">
          <mxGeometry x="150" y="310" width="70" height="40" as="geometry" />
        </mxCell>
        <mxCell id="4yoSR3sfbxtTGF_zmqx2-7" value="" style="edgeStyle=orthogonalEdgeStyle;rounded=0;orthogonalLoop=1;jettySize=auto;html=1;" edge="1" parent="1" source="4yoSR3sfbxtTGF_zmqx2-4" target="4yoSR3sfbxtTGF_zmqx2-3">
          <mxGeometry relative="1" as="geometry" />
        </mxCell>
        <mxCell id="4yoSR3sfbxtTGF_zmqx2-4" value="捡球" style="rounded=1;whiteSpace=wrap;html=1;" vertex="1" parent="1">
          <mxGeometry x="274" y="310" width="70" height="40" as="geometry" />
        </mxCell>
        <mxCell id="4yoSR3sfbxtTGF_zmqx2-9" value="" style="endArrow=none;dashed=1;html=1;dashPattern=1 3;strokeWidth=2;" edge="1" parent="1">
          <mxGeometry width="50" height="50" relative="1" as="geometry">
            <mxPoint x="120" y="280" as="sourcePoint" />
            <mxPoint x="390" y="280" as="targetPoint" />
          </mxGeometry>
        </mxCell>
        <mxCell id="4yoSR3sfbxtTGF_zmqx2-10" value="Actor" style="shape=umlActor;verticalLabelPosition=bottom;verticalAlign=top;html=1;outlineConnect=0;" vertex="1" parent="1">
          <mxGeometry x="230" y="140" width="30" height="60" as="geometry" />
        </mxCell>
        <mxCell id="4yoSR3sfbxtTGF_zmqx2-11" value="" style="shape=cube;whiteSpace=wrap;html=1;boundedLbl=1;backgroundOutline=1;darkOpacity=0.05;darkOpacity2=0.1;size=10;" vertex="1" parent="1">
          <mxGeometry x="220" y="380" width="54" height="40" as="geometry" />
        </mxCell>
        <mxCell id="4yoSR3sfbxtTGF_zmqx2-12" value="" style="ellipse;whiteSpace=wrap;html=1;aspect=fixed;" vertex="1" parent="1">
          <mxGeometry x="240" y="420" width="10" height="10" as="geometry" />
        </mxCell>
        <mxCell id="4yoSR3sfbxtTGF_zmqx2-13" value="" style="ellipse;whiteSpace=wrap;html=1;aspect=fixed;dashed=1;" vertex="1" parent="1">
          <mxGeometry x="252.5" y="410" width="10" height="10" as="geometry" />
        </mxCell>
        <mxCell id="4yoSR3sfbxtTGF_zmqx2-17" value="" style="ellipse;whiteSpace=wrap;html=1;aspect=fixed;" vertex="1" parent="1">
          <mxGeometry x="260" y="420" width="10" height="10" as="geometry" />
        </mxCell>
        <mxCell id="4yoSR3sfbxtTGF_zmqx2-18" value="" style="ellipse;whiteSpace=wrap;html=1;aspect=fixed;dashed=1;" vertex="1" parent="1">
          <mxGeometry x="232.5" y="410" width="10" height="10" as="geometry" />
        </mxCell>
        <mxCell id="4yoSR3sfbxtTGF_zmqx2-20" value="Car" style="text;html=1;align=center;verticalAlign=middle;resizable=0;points=[];autosize=1;strokeColor=none;fillColor=none;" vertex="1" parent="1">
          <mxGeometry x="231" y="431" width="29" height="18" as="geometry" />
        </mxCell>
      </root>
    </mxGraphModel>
  </diagram>
</mxfile>
